<svg width="125" height="49" viewBox="0 0 125 49" fill="none" xmlns="http://www.w3.org/2000/svg">
<g filter="url(#filter0_d_2_2)">
<path d="M21.4095 25.4781H20.419C19.3543 25.4781 18.3886 24.76 18.3886 23.4229C18.3886 22.4076 19.0819 21.3676 20.32 21.3676H20.7905C22.2762 21.3676 23.5143 20.9467 23.5143 19.4114C23.5143 17.9752 22.2267 17.5295 21.0876 17.5295H18.24C17.6705 17.5295 17.6457 18.0495 17.6457 18.1981C17.4476 22.2343 17.5714 27.4095 17.6705 30.5543C17.6952 31.3467 17.0019 32.2629 15.5657 32.2629C13.7829 32.2629 13.461 31.1733 13.4114 30.579C13.2381 28.3752 13.2381 17.2819 13.56 15.2267C13.7581 13.9143 15.0457 13.3943 15.6895 13.3943H20.6667C25.9905 13.3943 27.7238 16.3162 27.7238 19.4362C27.7238 21.4171 26.981 23.2743 25.3714 24.3886C26.3619 26.6419 27.1295 28.4743 27.6495 29.7867C28.021 30.7029 27.08 31.8171 26.2381 32.1143C25.3714 32.4362 24.1333 32.2629 23.7371 31.2971C23.0686 29.8114 22.4495 28.0038 21.4095 25.4781ZM34.4606 20.2038C34.5596 23.4476 34.6092 26.6667 34.4606 30.6038C34.4111 31.5448 33.2225 32.3124 32.1577 32.2629C31.0682 32.2133 30.1768 31.4457 30.1768 30.4305C30.2758 26.741 30.2511 23.7943 30.2015 20.3029C30.2015 19.3124 31.0682 18.6438 32.1082 18.5448C33.2473 18.4457 34.4606 19.0152 34.4606 20.2038ZM34.4854 14.5333V15.5981C34.4111 16.7619 33.2968 17.3562 32.1082 17.2571C31.0187 17.1581 30.2511 16.5638 30.2263 15.7714L30.2015 14.8057C30.152 13.741 31.3901 13.1714 32.232 13.1714C33.272 13.1714 34.4358 13.6171 34.4854 14.5333ZM45.9124 24.7105C45.9124 23.3486 45.5162 22.4324 44.7238 22.4324H44.2534C43.2629 22.4324 42.4953 21.4914 42.4953 20.3524C42.4953 19.2381 43.2629 18.2971 44.2038 18.2971H44.9219C49.181 18.2971 50.1467 21.0705 50.1467 24.4629C50.1467 26.1219 50.1219 29.0933 50.0724 30.4552C50.0476 31.2229 49.6762 32.2629 47.9429 32.2629C46.4324 32.2629 45.8134 31.2476 45.8134 30.4057C45.8134 28.8457 45.9124 25.9733 45.9124 24.7105ZM41.7772 30.6286C41.7772 31.1733 41.1334 32.2629 39.6972 32.2629C38.2857 32.2629 37.5429 31.2971 37.5181 30.381C37.4438 27.3105 37.4191 22.9029 37.5181 20.0552C37.5429 19.3124 38.2362 18.2229 39.6972 18.2229C41.0095 18.2229 41.8019 19.139 41.7772 20.08C41.7029 22.8038 41.6781 26.84 41.7772 30.6286ZM58.7201 36.2248C57.2096 36.2743 55.7487 35.8781 54.8077 35.2838C54.1887 34.9619 53.5696 33.9467 54.0896 32.9562C54.7582 31.7676 55.7982 31.6438 56.6896 32.139C57.2839 32.461 57.8287 32.659 58.8192 32.659C60.2306 32.659 60.9734 31.4952 61.0477 29.861C61.1468 27.8552 61.0477 24.8838 60.9239 22.581C60.9239 22.3829 60.8744 21.8381 60.2553 21.8381H58.943C57.2839 21.8381 56.2934 23.0267 56.2934 24.5867C56.2934 26.2457 57.1353 27.4095 58.2744 27.4095H58.7696C59.6115 27.4095 60.2058 28.2019 60.2058 29.1429C60.2058 30.0838 59.6858 30.9752 58.7944 30.9752H58.0763C54.1392 30.9752 52.0839 28.2762 52.0839 24.6114C52.0839 21.541 53.8668 18.2971 58.8687 18.2971H62.682C63.9944 18.2971 64.8611 19.0895 65.0592 20.179C65.2325 21.3429 65.3563 26.32 65.2572 29.6133C65.1087 34.1943 62.2363 36.101 58.7201 36.2248ZM69.1288 17.5543H65.6374C64.8202 17.5543 64.1021 16.7619 64.1021 15.5238C64.1021 14.459 64.7212 13.3943 65.6374 13.3943H76.805C77.746 13.3943 78.3402 14.1867 78.3402 15.499C78.3402 16.5886 77.746 17.5543 76.7802 17.5543H73.3879C73.4374 21.5905 73.4374 27.2114 73.3879 30.5048C73.3879 31.5943 72.4469 32.3124 71.1841 32.2629C69.946 32.2133 69.1041 31.4952 69.1041 30.4552C69.1288 27.1371 69.2031 21.4419 69.1288 17.5543ZM83.045 18.099C86.3631 18.1238 89.1364 19.7829 89.186 24.0914C89.186 25.701 89.186 29.2667 88.9879 30.48C88.7898 31.5695 87.9726 32.2629 86.9079 32.2629H83.2679C79.3307 32.2629 76.4831 30.9505 76.4831 27.781C76.4831 24.859 77.8945 23.2495 81.0393 23.2495H82.6983C83.6145 23.2495 84.1345 23.9676 84.1345 24.9333C84.1345 25.8248 83.6888 26.6667 82.6736 26.6667H81.7821C81.0393 26.6667 80.6926 27.1867 80.6926 27.7562C80.6926 28.5238 81.6088 28.8705 82.6983 28.8705H84.1593C84.8279 28.8705 84.8526 28.2762 84.8774 28.0286C84.9517 26.3448 84.9764 25.2057 84.9764 24.5124C84.9764 22.6305 84.605 21.6648 82.8717 21.6152C82.0793 21.5905 80.5193 21.7886 79.8012 21.8629C78.464 21.9371 77.9193 21.219 77.8698 20.2781C77.8202 19.0895 78.6621 18.5695 79.4793 18.3714C80.6679 18.1238 82.3269 18.099 83.045 18.099ZM95.892 14.7562C96.4367 19.0648 96.1891 28.0286 95.9167 30.7771C95.8177 31.7924 94.8272 32.3371 93.6386 32.2629C92.5739 32.1886 91.6577 31.4457 91.732 30.381C92.0539 26.6419 92.0786 18.7429 91.732 15.3505C91.5834 14.2114 92.5739 13.5181 93.5891 13.3943C94.6044 13.2705 95.7682 13.84 95.892 14.7562ZM110.405 22.0362L103.373 27.459C103.398 28.5733 103.472 29.5886 103.546 30.381C103.645 31.4457 102.704 32.1886 101.639 32.2629C100.451 32.3371 99.4604 31.7924 99.3614 30.7771C99.089 28.0286 98.8414 19.0648 99.3861 14.7562C99.5099 13.84 100.674 13.2705 101.689 13.3943C102.704 13.5181 103.67 14.2114 103.546 15.3505C103.373 16.96 103.298 19.6095 103.298 22.3333L107.731 18.7676C108.3 18.2971 109.662 18.2476 110.38 19.1886C111.173 20.1543 110.975 21.5162 110.405 22.0362ZM109.043 26.5924L111.173 28.9695C111.866 29.7619 111.495 31.1733 110.678 31.8419C109.687 32.6095 108.498 32.2629 108.028 31.7429L105.898 29.3905C105.255 28.6971 105.428 27.36 106.295 26.5924C107.186 25.899 108.424 25.8743 109.043 26.5924Z" fill="#233B45"/>
</g>
<defs>
<filter id="filter0_d_2_2" x="0.857141" y="0.790476" width="123.39" height="47.8648" filterUnits="userSpaceOnUse" color-interpolation-filters="sRGB">
<feFlood flood-opacity="0" result="BackgroundImageFix"/>
<feColorMatrix in="SourceAlpha" type="matrix" values="0 0 0 0 0 0 0 0 0 0 0 0 0 0 0 0 0 0 127 0" result="hardAlpha"/>
<feOffset/>
<feGaussianBlur stdDeviation="6.19048"/>
<feComposite in2="hardAlpha" operator="out"/>
<feColorMatrix type="matrix" values="0 0 0 0 0 0 0 0 0 0.470588 0 0 0 0 1 0 0 0 0.3 0"/>
<feBlend mode="normal" in2="BackgroundImageFix" result="effect1_dropShadow_2_2"/>
<feBlend mode="normal" in="SourceGraphic" in2="effect1_dropShadow_2_2" result="shape"/>
</filter>
</defs>
</svg>
